Coordinates
version=1
nRows=9
nColumns=24
inDegrees=yes

Units are S.I. units (second, meters, Newtons, ...)
Angles are in degrees.

endheader
time	pelvis_tilt	pelvis_list	pelvis_rotation	pelvis_tx	pelvis_ty	pelvis_tz	hip_flexion_r	hip_adduction_r	hip_rotation_r	knee_angle_r	ankle_angle_r	subtalar_angle_r	mtp_angle_r	hip_flexion_l	hip_adduction_l	hip_rotation_l	knee_angle_l	ankle_angle_l	subtalar_angle_l	mtp_angle_l	lumbar_extension	lumbar_bending	lumbar_rotation
      5.09000000	     14.12727693	     10.78300417	     11.20558879	      0.71446288	      0.74367992	     -0.31660737	     10.27251423	    -13.41450029	     -9.90719081	    -11.16906723	     19.49422061	     22.73807358	      0.00000000	    -27.07396287	      6.81231532	     11.32600626	    -20.26826758	     32.20347139	     15.73949318	      0.00000000	    -36.38658528	     -5.16303825	    -13.43186908
      5.09500000	     14.11899289	     10.50838809	     11.36985415	      0.72177191	      0.74348754	     -0.31597024	     10.19631656	    -12.97114575	     -9.81649287	    -11.75669833	     19.18287885	     22.24013436	      0.00000000	    -26.77519054	      6.40444280	     11.26712112	    -21.87577425	     31.91530584	     15.93571416	      0.00000000	    -36.25968166	     -4.91187131	    -13.05764302
      5.10000000	     14.13498767	     10.20976225	     11.45175978	      0.72910692	      0.74332747	     -0.31528436	     10.15729098	    -12.48341294	     -9.58752855	    -12.50610951	     18.80369468	     21.43842043	      0.00000000	    -26.45765601	      6.02641627	     11.16260843	    -23.54048926	     31.46698309	     15.92783304	      0.00000000	    -36.14527403	     -4.66561696	    -12.63908995
      5.10500000	     14.15935776	      9.89194052	     11.51574019	      0.73647992	      0.74320774	     -0.31462254	     10.11675641	    -11.97548499	     -9.36817112	    -13.33241309	     18.37638951	     20.46987239	      0.00000000	    -26.08918488	      5.65621912	     11.05331302	    -25.30293960	     30.88024874	     15.84902854	      0.00000000	    -36.02653784	     -4.40002002	    -12.16342382
      5.11000000	     14.17820503	      9.54624570	     11.56246747	      0.74388314	      0.74312138	     -0.31396900	     10.07810968	    -11.43427418	     -9.13493212	    -14.18739572	     17.89578744	     19.33425473	      0.00000000	    -25.64600902	      5.28536199	     10.91458213	    -27.16904551	     30.12842417	     15.70508540	      0.00000000	    -35.89040887	     -4.11817102	    -11.61892672
      5.11500000	     14.18314745	      9.21362339	     11.55258510	      0.75128452	      0.74303527	     -0.31321762	     10.09843169	    -10.87899026	     -8.70060399	    -15.14686951	     17.44873501	     17.86882204	      0.00000000	    -25.13040557	      4.94210302	     10.63934913	    -29.10126466	     29.15698018	     15.63964863	      0.00000000	    -35.74310387	     -3.88046490	    -11.10267703
      5.12000000	     14.19195770	      8.84707719	     11.56325327	      0.75867294	      0.74299147	     -0.31251528	     10.09623435	    -10.29355074	     -8.33009281	    -16.09919129	     16.97653309	     16.39763035	      0.00000000	    -24.54459576	      4.57318304	     10.38192700	    -31.13149971	     28.03740087	     15.46334100	      0.00000000	    -35.59730366	     -3.59020055	    -10.56145865
      5.12500000	     14.19210042	      8.46089753	     11.56491733	      0.76604902	      0.74297097	     -0.31180595	     10.09991267	     -9.67830889	     -7.92199625	    -17.05282727	     16.52682030	     14.88289340	      0.00000000	    -23.88294877	      4.19401891	     10.08569860	    -33.23062292	     26.72347968	     15.24738933	      0.00000000	    -35.43953891	     -3.28439430	    -10.01157333
      5.13000000	     14.18498989	      8.05468414	     11.57214511	      0.77339417	      0.74297273	     -0.31109504	     10.10432703	     -9.03615837	     -7.49986527	    -17.99880633	     16.12121321	     13.37623672	      0.00000000	    -23.14440640	      3.79350758	      9.76222029	    -35.39243592	     25.20665938	     14.98139216	      0.00000000	    -35.27692328	     -2.95384665	     -9.47458545
